<mxfile host="app.diagrams.net" modified="2021-06-05T13:22:31.705Z" agent="5.0 (Windows NT 10.0; Win64; x64) AppleWebKit/537.36 (KHTML, like Gecko) Chrome/91.0.4472.77 Safari/537.36 Edg/91.0.864.37" etag="E6TxTVQ7t73roHiZB86m" version="14.7.6" type="github" pages="2">
  <diagram id="YNPeIzLzXAuxo1o6plJz" name="第 1 页">
    <mxGraphModel dx="1422" dy="762" grid="1" gridSize="10" guides="1" tooltips="1" connect="1" arrows="1" fold="1" page="1" pageScale="1" pageWidth="1169" pageHeight="827" math="0" shadow="0">
      <root>
        <mxCell id="0" />
        <mxCell id="1" parent="0" />
        <mxCell id="2hpX-kTKjJc8opGto2OH-16" style="edgeStyle=none;rounded=0;orthogonalLoop=1;jettySize=auto;html=1;exitX=1;exitY=1;exitDx=0;exitDy=0;entryX=0.5;entryY=0;entryDx=0;entryDy=0;fillColor=#dae8fc;strokeColor=#6c8ebf;" edge="1" parent="1" source="2hpX-kTKjJc8opGto2OH-1" target="2hpX-kTKjJc8opGto2OH-3">
          <mxGeometry relative="1" as="geometry" />
        </mxCell>
        <mxCell id="2hpX-kTKjJc8opGto2OH-17" style="edgeStyle=none;rounded=0;orthogonalLoop=1;jettySize=auto;html=1;exitX=0;exitY=1;exitDx=0;exitDy=0;entryX=0.5;entryY=0;entryDx=0;entryDy=0;fillColor=#dae8fc;strokeColor=#6c8ebf;" edge="1" parent="1" source="2hpX-kTKjJc8opGto2OH-1" target="2hpX-kTKjJc8opGto2OH-2">
          <mxGeometry relative="1" as="geometry" />
        </mxCell>
        <mxCell id="2hpX-kTKjJc8opGto2OH-1" value="1" style="ellipse;whiteSpace=wrap;html=1;aspect=fixed;fillColor=#dae8fc;strokeColor=#6c8ebf;" vertex="1" parent="1">
          <mxGeometry x="140" y="160" width="40" height="40" as="geometry" />
        </mxCell>
        <mxCell id="2hpX-kTKjJc8opGto2OH-18" style="edgeStyle=none;rounded=0;orthogonalLoop=1;jettySize=auto;html=1;exitX=0.5;exitY=1;exitDx=0;exitDy=0;entryX=0.5;entryY=0;entryDx=0;entryDy=0;fillColor=#dae8fc;strokeColor=#6c8ebf;" edge="1" parent="1" source="2hpX-kTKjJc8opGto2OH-2" target="2hpX-kTKjJc8opGto2OH-9">
          <mxGeometry relative="1" as="geometry" />
        </mxCell>
        <mxCell id="2hpX-kTKjJc8opGto2OH-2" value="-2" style="ellipse;whiteSpace=wrap;html=1;aspect=fixed;fillColor=#dae8fc;strokeColor=#6c8ebf;" vertex="1" parent="1">
          <mxGeometry x="100" y="220" width="40" height="40" as="geometry" />
        </mxCell>
        <mxCell id="2hpX-kTKjJc8opGto2OH-3" value="2" style="ellipse;whiteSpace=wrap;html=1;aspect=fixed;fillColor=#dae8fc;strokeColor=#6c8ebf;" vertex="1" parent="1">
          <mxGeometry x="180" y="220" width="40" height="40" as="geometry" />
        </mxCell>
        <mxCell id="2hpX-kTKjJc8opGto2OH-11" style="rounded=0;orthogonalLoop=1;jettySize=auto;html=1;exitX=0;exitY=1;exitDx=0;exitDy=0;entryX=1;entryY=0;entryDx=0;entryDy=0;fillColor=#dae8fc;strokeColor=#6c8ebf;" edge="1" parent="1" source="2hpX-kTKjJc8opGto2OH-4" target="2hpX-kTKjJc8opGto2OH-1">
          <mxGeometry relative="1" as="geometry" />
        </mxCell>
        <mxCell id="2hpX-kTKjJc8opGto2OH-12" style="edgeStyle=none;rounded=0;orthogonalLoop=1;jettySize=auto;html=1;exitX=1;exitY=1;exitDx=0;exitDy=0;entryX=0;entryY=0;entryDx=0;entryDy=0;fillColor=#dae8fc;strokeColor=#6c8ebf;" edge="1" parent="1" source="2hpX-kTKjJc8opGto2OH-4" target="2hpX-kTKjJc8opGto2OH-7">
          <mxGeometry relative="1" as="geometry" />
        </mxCell>
        <mxCell id="2hpX-kTKjJc8opGto2OH-4" value="3" style="ellipse;whiteSpace=wrap;html=1;aspect=fixed;fillColor=#dae8fc;strokeColor=#6c8ebf;" vertex="1" parent="1">
          <mxGeometry x="220" y="100" width="40" height="40" as="geometry" />
        </mxCell>
        <mxCell id="2hpX-kTKjJc8opGto2OH-5" value="4" style="ellipse;whiteSpace=wrap;html=1;aspect=fixed;fillColor=#dae8fc;strokeColor=#6c8ebf;" vertex="1" parent="1">
          <mxGeometry x="240" y="220" width="40" height="40" as="geometry" />
        </mxCell>
        <mxCell id="2hpX-kTKjJc8opGto2OH-15" style="edgeStyle=none;rounded=0;orthogonalLoop=1;jettySize=auto;html=1;exitX=0.5;exitY=1;exitDx=0;exitDy=0;entryX=1;entryY=0;entryDx=0;entryDy=0;fillColor=#dae8fc;strokeColor=#6c8ebf;" edge="1" parent="1" source="2hpX-kTKjJc8opGto2OH-6" target="2hpX-kTKjJc8opGto2OH-8">
          <mxGeometry relative="1" as="geometry" />
        </mxCell>
        <mxCell id="2hpX-kTKjJc8opGto2OH-6" value="12" style="ellipse;whiteSpace=wrap;html=1;aspect=fixed;fillColor=#dae8fc;strokeColor=#6c8ebf;" vertex="1" parent="1">
          <mxGeometry x="330" y="220" width="40" height="40" as="geometry" />
        </mxCell>
        <mxCell id="2hpX-kTKjJc8opGto2OH-13" style="edgeStyle=none;rounded=0;orthogonalLoop=1;jettySize=auto;html=1;exitX=1;exitY=1;exitDx=0;exitDy=0;entryX=0.5;entryY=0;entryDx=0;entryDy=0;fillColor=#dae8fc;strokeColor=#6c8ebf;" edge="1" parent="1" source="2hpX-kTKjJc8opGto2OH-7" target="2hpX-kTKjJc8opGto2OH-6">
          <mxGeometry relative="1" as="geometry" />
        </mxCell>
        <mxCell id="2hpX-kTKjJc8opGto2OH-14" style="edgeStyle=none;rounded=0;orthogonalLoop=1;jettySize=auto;html=1;exitX=0;exitY=1;exitDx=0;exitDy=0;entryX=0.5;entryY=0;entryDx=0;entryDy=0;fillColor=#dae8fc;strokeColor=#6c8ebf;" edge="1" parent="1" source="2hpX-kTKjJc8opGto2OH-7" target="2hpX-kTKjJc8opGto2OH-5">
          <mxGeometry relative="1" as="geometry" />
        </mxCell>
        <mxCell id="2hpX-kTKjJc8opGto2OH-7" value="8" style="ellipse;whiteSpace=wrap;html=1;aspect=fixed;fillColor=#dae8fc;strokeColor=#6c8ebf;" vertex="1" parent="1">
          <mxGeometry x="290" y="160" width="40" height="40" as="geometry" />
        </mxCell>
        <mxCell id="2hpX-kTKjJc8opGto2OH-8" value="9" style="ellipse;whiteSpace=wrap;html=1;aspect=fixed;fillColor=#dae8fc;strokeColor=#6c8ebf;" vertex="1" parent="1">
          <mxGeometry x="290" y="300" width="40" height="40" as="geometry" />
        </mxCell>
        <mxCell id="2hpX-kTKjJc8opGto2OH-9" value="0" style="ellipse;whiteSpace=wrap;html=1;aspect=fixed;fillColor=#dae8fc;strokeColor=#6c8ebf;" vertex="1" parent="1">
          <mxGeometry x="130" y="300" width="40" height="40" as="geometry" />
        </mxCell>
        <mxCell id="2hpX-kTKjJc8opGto2OH-19" value="" style="endArrow=none;html=1;fillColor=#f8cecc;strokeColor=#b85450;strokeWidth=2;" edge="1" parent="1">
          <mxGeometry width="50" height="50" relative="1" as="geometry">
            <mxPoint x="330" y="360" as="sourcePoint" />
            <mxPoint x="330" y="130" as="targetPoint" />
          </mxGeometry>
        </mxCell>
        <mxCell id="2hpX-kTKjJc8opGto2OH-20" value="" style="endArrow=none;html=1;fillColor=#f8cecc;strokeColor=#b85450;strokeWidth=2;" edge="1" parent="1">
          <mxGeometry width="50" height="50" relative="1" as="geometry">
            <mxPoint x="180" y="360" as="sourcePoint" />
            <mxPoint x="180" y="130" as="targetPoint" />
          </mxGeometry>
        </mxCell>
        <mxCell id="2hpX-kTKjJc8opGto2OH-21" value="low = 1.5&lt;br&gt;high = 10" style="text;html=1;strokeColor=#666666;fillColor=#f5f5f5;align=center;verticalAlign=middle;whiteSpace=wrap;rounded=0;fontColor=#333333;" vertex="1" parent="1">
          <mxGeometry x="210" y="400" width="70" height="27" as="geometry" />
        </mxCell>
        <mxCell id="2hpX-kTKjJc8opGto2OH-22" style="edgeStyle=none;rounded=0;orthogonalLoop=1;jettySize=auto;html=1;exitX=1;exitY=1;exitDx=0;exitDy=0;entryX=0.5;entryY=0;entryDx=0;entryDy=0;fillColor=#dae8fc;strokeColor=#6c8ebf;" edge="1" parent="1" source="2hpX-kTKjJc8opGto2OH-24" target="2hpX-kTKjJc8opGto2OH-27">
          <mxGeometry relative="1" as="geometry" />
        </mxCell>
        <mxCell id="2hpX-kTKjJc8opGto2OH-23" style="edgeStyle=none;rounded=0;orthogonalLoop=1;jettySize=auto;html=1;exitX=0;exitY=1;exitDx=0;exitDy=0;entryX=0.5;entryY=0;entryDx=0;entryDy=0;fillColor=#dae8fc;strokeColor=#6c8ebf;" edge="1" parent="1" source="2hpX-kTKjJc8opGto2OH-24" target="2hpX-kTKjJc8opGto2OH-26">
          <mxGeometry relative="1" as="geometry" />
        </mxCell>
        <mxCell id="2hpX-kTKjJc8opGto2OH-24" value="1" style="ellipse;whiteSpace=wrap;html=1;aspect=fixed;fillColor=#dae8fc;strokeColor=#6c8ebf;" vertex="1" parent="1">
          <mxGeometry x="625" y="233" width="40" height="40" as="geometry" />
        </mxCell>
        <mxCell id="2hpX-kTKjJc8opGto2OH-25" style="edgeStyle=none;rounded=0;orthogonalLoop=1;jettySize=auto;html=1;exitX=0.5;exitY=1;exitDx=0;exitDy=0;entryX=0.5;entryY=0;entryDx=0;entryDy=0;fillColor=#dae8fc;strokeColor=#6c8ebf;" edge="1" parent="1" source="2hpX-kTKjJc8opGto2OH-26" target="2hpX-kTKjJc8opGto2OH-38">
          <mxGeometry relative="1" as="geometry" />
        </mxCell>
        <mxCell id="2hpX-kTKjJc8opGto2OH-26" value="-2" style="ellipse;whiteSpace=wrap;html=1;aspect=fixed;fillColor=#dae8fc;strokeColor=#6c8ebf;" vertex="1" parent="1">
          <mxGeometry x="585" y="293" width="40" height="40" as="geometry" />
        </mxCell>
        <mxCell id="2hpX-kTKjJc8opGto2OH-27" value="2" style="ellipse;whiteSpace=wrap;html=1;aspect=fixed;fillColor=#dae8fc;strokeColor=#6c8ebf;" vertex="1" parent="1">
          <mxGeometry x="665" y="293" width="40" height="40" as="geometry" />
        </mxCell>
        <mxCell id="2hpX-kTKjJc8opGto2OH-28" style="rounded=0;orthogonalLoop=1;jettySize=auto;html=1;exitX=0;exitY=1;exitDx=0;exitDy=0;entryX=1;entryY=0;entryDx=0;entryDy=0;fillColor=#dae8fc;strokeColor=#6c8ebf;" edge="1" parent="1" source="2hpX-kTKjJc8opGto2OH-30" target="2hpX-kTKjJc8opGto2OH-24">
          <mxGeometry relative="1" as="geometry" />
        </mxCell>
        <mxCell id="2hpX-kTKjJc8opGto2OH-29" style="edgeStyle=none;rounded=0;orthogonalLoop=1;jettySize=auto;html=1;exitX=1;exitY=1;exitDx=0;exitDy=0;entryX=0;entryY=0;entryDx=0;entryDy=0;fillColor=#dae8fc;strokeColor=#6c8ebf;" edge="1" parent="1" source="2hpX-kTKjJc8opGto2OH-30" target="2hpX-kTKjJc8opGto2OH-36">
          <mxGeometry relative="1" as="geometry" />
        </mxCell>
        <mxCell id="2hpX-kTKjJc8opGto2OH-30" value="3" style="ellipse;whiteSpace=wrap;html=1;aspect=fixed;fillColor=#dae8fc;strokeColor=#6c8ebf;" vertex="1" parent="1">
          <mxGeometry x="705" y="173" width="40" height="40" as="geometry" />
        </mxCell>
        <mxCell id="2hpX-kTKjJc8opGto2OH-31" value="4" style="ellipse;whiteSpace=wrap;html=1;aspect=fixed;fillColor=#dae8fc;strokeColor=#6c8ebf;" vertex="1" parent="1">
          <mxGeometry x="725" y="293" width="40" height="40" as="geometry" />
        </mxCell>
        <mxCell id="2hpX-kTKjJc8opGto2OH-32" style="edgeStyle=none;rounded=0;orthogonalLoop=1;jettySize=auto;html=1;exitX=0.5;exitY=1;exitDx=0;exitDy=0;entryX=1;entryY=0;entryDx=0;entryDy=0;fillColor=#dae8fc;strokeColor=#6c8ebf;" edge="1" parent="1" source="2hpX-kTKjJc8opGto2OH-33" target="2hpX-kTKjJc8opGto2OH-37">
          <mxGeometry relative="1" as="geometry" />
        </mxCell>
        <mxCell id="2hpX-kTKjJc8opGto2OH-33" value="12" style="ellipse;whiteSpace=wrap;html=1;aspect=fixed;fillColor=#dae8fc;strokeColor=#6c8ebf;" vertex="1" parent="1">
          <mxGeometry x="815" y="293" width="40" height="40" as="geometry" />
        </mxCell>
        <mxCell id="2hpX-kTKjJc8opGto2OH-34" style="edgeStyle=none;rounded=0;orthogonalLoop=1;jettySize=auto;html=1;exitX=1;exitY=1;exitDx=0;exitDy=0;entryX=0.5;entryY=0;entryDx=0;entryDy=0;fillColor=#dae8fc;strokeColor=#6c8ebf;" edge="1" parent="1" source="2hpX-kTKjJc8opGto2OH-36" target="2hpX-kTKjJc8opGto2OH-33">
          <mxGeometry relative="1" as="geometry" />
        </mxCell>
        <mxCell id="2hpX-kTKjJc8opGto2OH-35" style="edgeStyle=none;rounded=0;orthogonalLoop=1;jettySize=auto;html=1;exitX=0;exitY=1;exitDx=0;exitDy=0;entryX=0.5;entryY=0;entryDx=0;entryDy=0;fillColor=#dae8fc;strokeColor=#6c8ebf;" edge="1" parent="1" source="2hpX-kTKjJc8opGto2OH-36" target="2hpX-kTKjJc8opGto2OH-31">
          <mxGeometry relative="1" as="geometry" />
        </mxCell>
        <mxCell id="2hpX-kTKjJc8opGto2OH-36" value="8" style="ellipse;whiteSpace=wrap;html=1;aspect=fixed;fillColor=#dae8fc;strokeColor=#6c8ebf;" vertex="1" parent="1">
          <mxGeometry x="775" y="233" width="40" height="40" as="geometry" />
        </mxCell>
        <mxCell id="2hpX-kTKjJc8opGto2OH-37" value="9" style="ellipse;whiteSpace=wrap;html=1;aspect=fixed;fillColor=#dae8fc;strokeColor=#6c8ebf;" vertex="1" parent="1">
          <mxGeometry x="775" y="373" width="40" height="40" as="geometry" />
        </mxCell>
        <mxCell id="2hpX-kTKjJc8opGto2OH-38" value="0" style="ellipse;whiteSpace=wrap;html=1;aspect=fixed;fillColor=#dae8fc;strokeColor=#6c8ebf;" vertex="1" parent="1">
          <mxGeometry x="615" y="373" width="40" height="40" as="geometry" />
        </mxCell>
        <mxCell id="2hpX-kTKjJc8opGto2OH-41" value="" style="curved=1;endArrow=none;html=1;strokeWidth=2;entryX=0.25;entryY=0.4;entryDx=0;entryDy=0;entryPerimeter=0;startArrow=classic;startFill=1;endFill=0;fillColor=#f8cecc;strokeColor=#b85450;" edge="1" parent="1" target="2hpX-kTKjJc8opGto2OH-30">
          <mxGeometry width="50" height="50" relative="1" as="geometry">
            <mxPoint x="665" y="353" as="sourcePoint" />
            <mxPoint x="685" y="173" as="targetPoint" />
            <Array as="points">
              <mxPoint x="685" y="313" />
              <mxPoint x="685" y="303" />
              <mxPoint x="625" y="243" />
            </Array>
          </mxGeometry>
        </mxCell>
        <mxCell id="2hpX-kTKjJc8opGto2OH-43" value="" style="curved=1;endArrow=classic;html=1;strokeWidth=2;exitX=0.725;exitY=0.45;exitDx=0;exitDy=0;exitPerimeter=0;fillColor=#f8cecc;strokeColor=#b85450;" edge="1" parent="1" source="2hpX-kTKjJc8opGto2OH-30">
          <mxGeometry width="50" height="50" relative="1" as="geometry">
            <mxPoint x="930" y="300" as="sourcePoint" />
            <mxPoint x="825" y="446" as="targetPoint" />
            <Array as="points">
              <mxPoint x="800" y="250" />
              <mxPoint x="816" y="270" />
              <mxPoint x="840" y="323" />
              <mxPoint x="816" y="350" />
              <mxPoint x="791" y="395" />
            </Array>
          </mxGeometry>
        </mxCell>
        <mxCell id="2hpX-kTKjJc8opGto2OH-44" value="cur = 3&lt;br&gt;cur.left &amp;lt; low:&amp;nbsp;&amp;nbsp;&lt;br&gt;&lt;span style=&quot;white-space: pre&quot;&gt;	&lt;/span&gt;cur.left = cur.left.right" style="text;html=1;strokeColor=#82b366;fillColor=#d5e8d4;align=left;verticalAlign=middle;whiteSpace=wrap;rounded=0;" vertex="1" parent="1">
          <mxGeometry x="550" y="150" width="144" height="50" as="geometry" />
        </mxCell>
        <mxCell id="2hpX-kTKjJc8opGto2OH-45" value="将节点2挂到3的左边" style="text;html=1;strokeColor=#9673a6;fillColor=#e1d5e7;align=center;verticalAlign=middle;whiteSpace=wrap;rounded=0;" vertex="1" parent="1">
          <mxGeometry x="550" y="200" width="80" height="27" as="geometry" />
        </mxCell>
        <mxCell id="2hpX-kTKjJc8opGto2OH-46" value="cur = 8&lt;br&gt;cur.right &amp;gt; high:&amp;nbsp;&amp;nbsp;&lt;br&gt;&lt;span style=&quot;white-space: pre&quot;&gt;	&lt;/span&gt;cur.right= cur.right.left" style="text;html=1;strokeColor=#82b366;fillColor=#d5e8d4;align=left;verticalAlign=middle;whiteSpace=wrap;rounded=0;" vertex="1" parent="1">
          <mxGeometry x="830" y="213" width="160" height="50" as="geometry" />
        </mxCell>
        <mxCell id="2hpX-kTKjJc8opGto2OH-47" value="将节点9挂到8的右边" style="text;html=1;strokeColor=#9673a6;fillColor=#e1d5e7;align=center;verticalAlign=middle;whiteSpace=wrap;rounded=0;" vertex="1" parent="1">
          <mxGeometry x="910" y="263" width="80" height="27" as="geometry" />
        </mxCell>
        <mxCell id="2hpX-kTKjJc8opGto2OH-50" value="2" style="ellipse;whiteSpace=wrap;html=1;aspect=fixed;fillColor=#dae8fc;strokeColor=#6c8ebf;" vertex="1" parent="1">
          <mxGeometry x="585" y="540" width="40" height="40" as="geometry" />
        </mxCell>
        <mxCell id="2hpX-kTKjJc8opGto2OH-54" style="rounded=0;orthogonalLoop=1;jettySize=auto;html=1;exitX=0;exitY=1;exitDx=0;exitDy=0;entryX=1;entryY=0;entryDx=0;entryDy=0;fillColor=#dae8fc;strokeColor=#6c8ebf;" edge="1" parent="1" source="2hpX-kTKjJc8opGto2OH-56" target="2hpX-kTKjJc8opGto2OH-50">
          <mxGeometry relative="1" as="geometry" />
        </mxCell>
        <mxCell id="2hpX-kTKjJc8opGto2OH-55" style="edgeStyle=none;rounded=0;orthogonalLoop=1;jettySize=auto;html=1;exitX=1;exitY=1;exitDx=0;exitDy=0;entryX=0;entryY=0;entryDx=0;entryDy=0;fillColor=#dae8fc;strokeColor=#6c8ebf;" edge="1" parent="1" source="2hpX-kTKjJc8opGto2OH-56" target="2hpX-kTKjJc8opGto2OH-62">
          <mxGeometry relative="1" as="geometry" />
        </mxCell>
        <mxCell id="2hpX-kTKjJc8opGto2OH-56" value="3" style="ellipse;whiteSpace=wrap;html=1;aspect=fixed;fillColor=#dae8fc;strokeColor=#6c8ebf;" vertex="1" parent="1">
          <mxGeometry x="665" y="480" width="40" height="40" as="geometry" />
        </mxCell>
        <mxCell id="2hpX-kTKjJc8opGto2OH-57" value="4" style="ellipse;whiteSpace=wrap;html=1;aspect=fixed;fillColor=#dae8fc;strokeColor=#6c8ebf;" vertex="1" parent="1">
          <mxGeometry x="685" y="600" width="40" height="40" as="geometry" />
        </mxCell>
        <mxCell id="2hpX-kTKjJc8opGto2OH-59" value="9" style="ellipse;whiteSpace=wrap;html=1;aspect=fixed;fillColor=#dae8fc;strokeColor=#6c8ebf;" vertex="1" parent="1">
          <mxGeometry x="775" y="600" width="40" height="40" as="geometry" />
        </mxCell>
        <mxCell id="2hpX-kTKjJc8opGto2OH-60" style="edgeStyle=none;rounded=0;orthogonalLoop=1;jettySize=auto;html=1;exitX=1;exitY=1;exitDx=0;exitDy=0;entryX=0.5;entryY=0;entryDx=0;entryDy=0;fillColor=#dae8fc;strokeColor=#6c8ebf;" edge="1" parent="1" source="2hpX-kTKjJc8opGto2OH-62" target="2hpX-kTKjJc8opGto2OH-59">
          <mxGeometry relative="1" as="geometry" />
        </mxCell>
        <mxCell id="2hpX-kTKjJc8opGto2OH-61" style="edgeStyle=none;rounded=0;orthogonalLoop=1;jettySize=auto;html=1;exitX=0;exitY=1;exitDx=0;exitDy=0;entryX=0.5;entryY=0;entryDx=0;entryDy=0;fillColor=#dae8fc;strokeColor=#6c8ebf;" edge="1" parent="1" source="2hpX-kTKjJc8opGto2OH-62" target="2hpX-kTKjJc8opGto2OH-57">
          <mxGeometry relative="1" as="geometry" />
        </mxCell>
        <mxCell id="2hpX-kTKjJc8opGto2OH-62" value="8" style="ellipse;whiteSpace=wrap;html=1;aspect=fixed;fillColor=#dae8fc;strokeColor=#6c8ebf;" vertex="1" parent="1">
          <mxGeometry x="735" y="540" width="40" height="40" as="geometry" />
        </mxCell>
      </root>
    </mxGraphModel>
  </diagram>
  <diagram id="10ET0PfzSdcdofNH-uFr" name="第 2 页">
    <mxGraphModel dx="1422" dy="762" grid="1" gridSize="10" guides="1" tooltips="1" connect="1" arrows="1" fold="1" page="1" pageScale="1" pageWidth="1169" pageHeight="827" math="0" shadow="0">
      <root>
        <mxCell id="NSotjK8T6bn4dVVNWI57-0" />
        <mxCell id="NSotjK8T6bn4dVVNWI57-1" parent="NSotjK8T6bn4dVVNWI57-0" />
        <mxCell id="A-d34VdUEFRbh1KxrQAH-0" style="edgeStyle=none;rounded=0;orthogonalLoop=1;jettySize=auto;html=1;exitX=1;exitY=1;exitDx=0;exitDy=0;entryX=0.5;entryY=0;entryDx=0;entryDy=0;fillColor=#dae8fc;strokeColor=#6c8ebf;" edge="1" parent="NSotjK8T6bn4dVVNWI57-1" source="A-d34VdUEFRbh1KxrQAH-2" target="A-d34VdUEFRbh1KxrQAH-5">
          <mxGeometry relative="1" as="geometry" />
        </mxCell>
        <mxCell id="A-d34VdUEFRbh1KxrQAH-1" style="edgeStyle=none;rounded=0;orthogonalLoop=1;jettySize=auto;html=1;exitX=0;exitY=1;exitDx=0;exitDy=0;entryX=0.5;entryY=0;entryDx=0;entryDy=0;fillColor=#dae8fc;strokeColor=#6c8ebf;" edge="1" parent="NSotjK8T6bn4dVVNWI57-1" source="A-d34VdUEFRbh1KxrQAH-2" target="A-d34VdUEFRbh1KxrQAH-4">
          <mxGeometry relative="1" as="geometry" />
        </mxCell>
        <mxCell id="A-d34VdUEFRbh1KxrQAH-2" value="1" style="ellipse;whiteSpace=wrap;html=1;aspect=fixed;fillColor=#dae8fc;strokeColor=#6c8ebf;" vertex="1" parent="NSotjK8T6bn4dVVNWI57-1">
          <mxGeometry x="140" y="160" width="40" height="40" as="geometry" />
        </mxCell>
        <mxCell id="A-d34VdUEFRbh1KxrQAH-3" style="edgeStyle=none;rounded=0;orthogonalLoop=1;jettySize=auto;html=1;exitX=0.5;exitY=1;exitDx=0;exitDy=0;entryX=0.5;entryY=0;entryDx=0;entryDy=0;fillColor=#dae8fc;strokeColor=#6c8ebf;" edge="1" parent="NSotjK8T6bn4dVVNWI57-1" source="A-d34VdUEFRbh1KxrQAH-4" target="A-d34VdUEFRbh1KxrQAH-16">
          <mxGeometry relative="1" as="geometry" />
        </mxCell>
        <mxCell id="A-d34VdUEFRbh1KxrQAH-4" value="-2" style="ellipse;whiteSpace=wrap;html=1;aspect=fixed;fillColor=#dae8fc;strokeColor=#6c8ebf;" vertex="1" parent="NSotjK8T6bn4dVVNWI57-1">
          <mxGeometry x="100" y="220" width="40" height="40" as="geometry" />
        </mxCell>
        <mxCell id="A-d34VdUEFRbh1KxrQAH-5" value="2" style="ellipse;whiteSpace=wrap;html=1;aspect=fixed;fillColor=#dae8fc;strokeColor=#6c8ebf;" vertex="1" parent="NSotjK8T6bn4dVVNWI57-1">
          <mxGeometry x="180" y="220" width="40" height="40" as="geometry" />
        </mxCell>
        <mxCell id="A-d34VdUEFRbh1KxrQAH-6" style="rounded=0;orthogonalLoop=1;jettySize=auto;html=1;exitX=0;exitY=1;exitDx=0;exitDy=0;entryX=1;entryY=0;entryDx=0;entryDy=0;fillColor=#dae8fc;strokeColor=#6c8ebf;" edge="1" parent="NSotjK8T6bn4dVVNWI57-1" source="A-d34VdUEFRbh1KxrQAH-8" target="A-d34VdUEFRbh1KxrQAH-2">
          <mxGeometry relative="1" as="geometry" />
        </mxCell>
        <mxCell id="A-d34VdUEFRbh1KxrQAH-7" style="edgeStyle=none;rounded=0;orthogonalLoop=1;jettySize=auto;html=1;exitX=1;exitY=1;exitDx=0;exitDy=0;entryX=0;entryY=0;entryDx=0;entryDy=0;fillColor=#dae8fc;strokeColor=#6c8ebf;" edge="1" parent="NSotjK8T6bn4dVVNWI57-1" source="A-d34VdUEFRbh1KxrQAH-8" target="A-d34VdUEFRbh1KxrQAH-14">
          <mxGeometry relative="1" as="geometry" />
        </mxCell>
        <mxCell id="A-d34VdUEFRbh1KxrQAH-8" value="3" style="ellipse;whiteSpace=wrap;html=1;aspect=fixed;fillColor=#dae8fc;strokeColor=#6c8ebf;" vertex="1" parent="NSotjK8T6bn4dVVNWI57-1">
          <mxGeometry x="220" y="100" width="40" height="40" as="geometry" />
        </mxCell>
        <mxCell id="A-d34VdUEFRbh1KxrQAH-9" value="4" style="ellipse;whiteSpace=wrap;html=1;aspect=fixed;fillColor=#dae8fc;strokeColor=#6c8ebf;" vertex="1" parent="NSotjK8T6bn4dVVNWI57-1">
          <mxGeometry x="240" y="220" width="40" height="40" as="geometry" />
        </mxCell>
        <mxCell id="A-d34VdUEFRbh1KxrQAH-10" style="edgeStyle=none;rounded=0;orthogonalLoop=1;jettySize=auto;html=1;exitX=0.5;exitY=1;exitDx=0;exitDy=0;entryX=1;entryY=0;entryDx=0;entryDy=0;fillColor=#dae8fc;strokeColor=#6c8ebf;" edge="1" parent="NSotjK8T6bn4dVVNWI57-1" source="A-d34VdUEFRbh1KxrQAH-11" target="A-d34VdUEFRbh1KxrQAH-15">
          <mxGeometry relative="1" as="geometry" />
        </mxCell>
        <mxCell id="A-d34VdUEFRbh1KxrQAH-11" value="12" style="ellipse;whiteSpace=wrap;html=1;aspect=fixed;fillColor=#dae8fc;strokeColor=#6c8ebf;" vertex="1" parent="NSotjK8T6bn4dVVNWI57-1">
          <mxGeometry x="330" y="220" width="40" height="40" as="geometry" />
        </mxCell>
        <mxCell id="A-d34VdUEFRbh1KxrQAH-12" style="edgeStyle=none;rounded=0;orthogonalLoop=1;jettySize=auto;html=1;exitX=1;exitY=1;exitDx=0;exitDy=0;entryX=0.5;entryY=0;entryDx=0;entryDy=0;fillColor=#dae8fc;strokeColor=#6c8ebf;" edge="1" parent="NSotjK8T6bn4dVVNWI57-1" source="A-d34VdUEFRbh1KxrQAH-14" target="A-d34VdUEFRbh1KxrQAH-11">
          <mxGeometry relative="1" as="geometry" />
        </mxCell>
        <mxCell id="A-d34VdUEFRbh1KxrQAH-13" style="edgeStyle=none;rounded=0;orthogonalLoop=1;jettySize=auto;html=1;exitX=0;exitY=1;exitDx=0;exitDy=0;entryX=0.5;entryY=0;entryDx=0;entryDy=0;fillColor=#dae8fc;strokeColor=#6c8ebf;" edge="1" parent="NSotjK8T6bn4dVVNWI57-1" source="A-d34VdUEFRbh1KxrQAH-14" target="A-d34VdUEFRbh1KxrQAH-9">
          <mxGeometry relative="1" as="geometry" />
        </mxCell>
        <mxCell id="A-d34VdUEFRbh1KxrQAH-14" value="8" style="ellipse;whiteSpace=wrap;html=1;aspect=fixed;fillColor=#dae8fc;strokeColor=#6c8ebf;" vertex="1" parent="NSotjK8T6bn4dVVNWI57-1">
          <mxGeometry x="290" y="160" width="40" height="40" as="geometry" />
        </mxCell>
        <mxCell id="A-d34VdUEFRbh1KxrQAH-15" value="9" style="ellipse;whiteSpace=wrap;html=1;aspect=fixed;fillColor=#dae8fc;strokeColor=#6c8ebf;" vertex="1" parent="NSotjK8T6bn4dVVNWI57-1">
          <mxGeometry x="290" y="300" width="40" height="40" as="geometry" />
        </mxCell>
        <mxCell id="A-d34VdUEFRbh1KxrQAH-16" value="0" style="ellipse;whiteSpace=wrap;html=1;aspect=fixed;fillColor=#dae8fc;strokeColor=#6c8ebf;" vertex="1" parent="NSotjK8T6bn4dVVNWI57-1">
          <mxGeometry x="130" y="300" width="40" height="40" as="geometry" />
        </mxCell>
        <mxCell id="A-d34VdUEFRbh1KxrQAH-17" value="" style="endArrow=none;html=1;fillColor=#f8cecc;strokeColor=#b85450;strokeWidth=2;" edge="1" parent="NSotjK8T6bn4dVVNWI57-1">
          <mxGeometry width="50" height="50" relative="1" as="geometry">
            <mxPoint x="330" y="360" as="sourcePoint" />
            <mxPoint x="330" y="130" as="targetPoint" />
          </mxGeometry>
        </mxCell>
        <mxCell id="A-d34VdUEFRbh1KxrQAH-18" value="" style="endArrow=none;html=1;fillColor=#f8cecc;strokeColor=#b85450;strokeWidth=2;" edge="1" parent="NSotjK8T6bn4dVVNWI57-1">
          <mxGeometry width="50" height="50" relative="1" as="geometry">
            <mxPoint x="180" y="360" as="sourcePoint" />
            <mxPoint x="180" y="130" as="targetPoint" />
          </mxGeometry>
        </mxCell>
        <mxCell id="A-d34VdUEFRbh1KxrQAH-19" value="low = 1.5&lt;br&gt;high = 10" style="text;html=1;strokeColor=#666666;fillColor=#f5f5f5;align=center;verticalAlign=middle;whiteSpace=wrap;rounded=0;fontColor=#333333;" vertex="1" parent="NSotjK8T6bn4dVVNWI57-1">
          <mxGeometry x="210" y="400" width="70" height="27" as="geometry" />
        </mxCell>
        <mxCell id="A-d34VdUEFRbh1KxrQAH-20" value="&lt;div style=&quot;text-align: left&quot;&gt;&lt;span&gt;trimBST( cur = 3)&amp;nbsp; #&amp;nbsp;&lt;/span&gt;&lt;span&gt;3&amp;nbsp;&lt;/span&gt;&lt;span&gt;在范围内&lt;/span&gt;&lt;/div&gt;&lt;div style=&quot;text-align: left&quot;&gt;cur.left = trimBST(cur .left = 1)&lt;/div&gt;&lt;div style=&quot;text-align: left&quot;&gt;cur.right = trimBST(cur.right = 8)&lt;/div&gt;&lt;div style=&quot;text-align: left&quot;&gt;return cur = 3&lt;/div&gt;" style="text;html=1;strokeColor=#666666;fillColor=#f5f5f5;align=center;verticalAlign=middle;whiteSpace=wrap;rounded=0;fontColor=#333333;" vertex="1" parent="NSotjK8T6bn4dVVNWI57-1">
          <mxGeometry x="530" y="205" width="195" height="70" as="geometry" />
        </mxCell>
        <mxCell id="A-d34VdUEFRbh1KxrQAH-21" value="&lt;div style=&quot;text-align: left&quot;&gt;&lt;span&gt;trimBST( cur = 1)&amp;nbsp; # 1不&lt;/span&gt;&lt;span&gt;在范围内&lt;/span&gt;&lt;/div&gt;&lt;div style=&quot;text-align: left&quot;&gt;cur.val &amp;lt; low:&lt;/div&gt;&lt;div style=&quot;text-align: left&quot;&gt;&lt;span&gt;	&lt;/span&gt;return&amp;nbsp;&lt;span&gt;trimBST(cur .right= 2)&lt;/span&gt;&lt;/div&gt;" style="text;html=1;strokeColor=#666666;fillColor=#f5f5f5;align=center;verticalAlign=middle;whiteSpace=wrap;rounded=0;fontColor=#333333;" vertex="1" parent="NSotjK8T6bn4dVVNWI57-1">
          <mxGeometry x="770" y="200" width="195" height="60" as="geometry" />
        </mxCell>
        <mxCell id="A-d34VdUEFRbh1KxrQAH-22" value="&lt;div style=&quot;text-align: left&quot;&gt;&lt;span&gt;trimBST( cur = 8)&amp;nbsp; # 8&lt;/span&gt;&lt;span&gt;&amp;nbsp;&lt;/span&gt;&lt;span&gt;在范围内&lt;/span&gt;&lt;/div&gt;&lt;div style=&quot;text-align: left&quot;&gt;cur.left = trimBST(cur .left = 4)&lt;/div&gt;&lt;div style=&quot;text-align: left&quot;&gt;cur.right = trimBST(cur.right = 12)&lt;/div&gt;&lt;div style=&quot;text-align: left&quot;&gt;return cur = 8&lt;/div&gt;" style="text;html=1;strokeColor=#666666;fillColor=#f5f5f5;align=center;verticalAlign=middle;whiteSpace=wrap;rounded=0;fontColor=#333333;" vertex="1" parent="NSotjK8T6bn4dVVNWI57-1">
          <mxGeometry x="780" y="290" width="195" height="70" as="geometry" />
        </mxCell>
        <mxCell id="A-d34VdUEFRbh1KxrQAH-24" value="&lt;div style=&quot;text-align: left&quot;&gt;&lt;span&gt;trimBST( cur = 2)&amp;nbsp; # 2&lt;/span&gt;&lt;span&gt;在范围内,且为叶子节点 直接返回&lt;/span&gt;&lt;/div&gt;&lt;div style=&quot;text-align: left&quot;&gt;return cur = 2&lt;/div&gt;" style="text;html=1;strokeColor=#666666;fillColor=#f5f5f5;align=center;verticalAlign=middle;whiteSpace=wrap;rounded=0;fontColor=#333333;" vertex="1" parent="NSotjK8T6bn4dVVNWI57-1">
          <mxGeometry x="1010" y="200" width="195" height="50" as="geometry" />
        </mxCell>
        <mxCell id="A-d34VdUEFRbh1KxrQAH-29" value="&lt;div style=&quot;text-align: justify&quot;&gt;&lt;span style=&quot;font-size: 15px&quot;&gt;就拿这个节点来说，当前节点 8 满足范围，所以不管其左右子树什么情况，都会将当前节点 8 给返回去.当然左右子树的情况还是要去查看的&lt;/span&gt;&lt;/div&gt;" style="rounded=1;whiteSpace=wrap;html=1;fillColor=#f8cecc;strokeColor=#b85450;align=left;" vertex="1" parent="NSotjK8T6bn4dVVNWI57-1">
          <mxGeometry x="620" y="414" width="210" height="106" as="geometry" />
        </mxCell>
        <mxCell id="A-d34VdUEFRbh1KxrQAH-30" value="&lt;div style=&quot;text-align: left&quot;&gt;&lt;span&gt;trimBST( cur = 4)&amp;nbsp; # 4&lt;/span&gt;&lt;span&gt;在范围内,且为叶子节点 直接返回&lt;/span&gt;&lt;/div&gt;&lt;div style=&quot;text-align: left&quot;&gt;return cur = 4&lt;/div&gt;" style="text;html=1;strokeColor=#666666;fillColor=#f5f5f5;align=center;verticalAlign=middle;whiteSpace=wrap;rounded=0;fontColor=#333333;" vertex="1" parent="NSotjK8T6bn4dVVNWI57-1">
          <mxGeometry x="1010" y="290" width="195" height="50" as="geometry" />
        </mxCell>
        <mxCell id="A-d34VdUEFRbh1KxrQAH-32" value="&lt;div style=&quot;text-align: left&quot;&gt;&lt;span&gt;trimBST( cur = 12)&amp;nbsp; # 12不&lt;/span&gt;&lt;span&gt;在范围内&lt;/span&gt;&lt;/div&gt;&lt;div style=&quot;text-align: left&quot;&gt;cur.val &amp;gt;high:&lt;/div&gt;&lt;div style=&quot;text-align: left&quot;&gt;&lt;span&gt;	&lt;/span&gt;return&amp;nbsp;&lt;span&gt;trimBST(cur .left= 2)&lt;/span&gt;&lt;/div&gt;" style="text;html=1;strokeColor=#666666;fillColor=#f5f5f5;align=center;verticalAlign=middle;whiteSpace=wrap;rounded=0;fontColor=#333333;" vertex="1" parent="NSotjK8T6bn4dVVNWI57-1">
          <mxGeometry x="1000" y="367" width="195" height="60" as="geometry" />
        </mxCell>
        <mxCell id="A-d34VdUEFRbh1KxrQAH-33" value="&lt;div style=&quot;text-align: left&quot;&gt;&lt;span&gt;trimBST( cur = 9)&amp;nbsp; # 4&lt;/span&gt;&lt;span&gt;在范围内,且为叶子节点 直接返回&lt;/span&gt;&lt;/div&gt;&lt;div style=&quot;text-align: left&quot;&gt;return cur = 9&lt;/div&gt;" style="text;html=1;strokeColor=#666666;fillColor=#f5f5f5;align=center;verticalAlign=middle;whiteSpace=wrap;rounded=0;fontColor=#333333;" vertex="1" parent="NSotjK8T6bn4dVVNWI57-1">
          <mxGeometry x="1220" y="372" width="195" height="50" as="geometry" />
        </mxCell>
        <mxCell id="A-d34VdUEFRbh1KxrQAH-34" value="&lt;div style=&quot;text-align: justify&quot;&gt;&lt;span style=&quot;font-size: 15px&quot;&gt;就拿这个节点来说，当前节点 12 不满足范围，所以去其左子树找满足范围的节点并且返回。恰逢其左子树为9满足，所以会将9给返回来，然后该函数再将9返回到上一层，也就是8的右边&lt;/span&gt;&lt;/div&gt;" style="rounded=1;whiteSpace=wrap;html=1;fillColor=#f8cecc;strokeColor=#b85450;" vertex="1" parent="NSotjK8T6bn4dVVNWI57-1">
          <mxGeometry x="990" y="470" width="230" height="130" as="geometry" />
        </mxCell>
        <mxCell id="A-d34VdUEFRbh1KxrQAH-35" value="" style="shape=flexArrow;endArrow=classic;html=1;strokeWidth=2;entryX=0;entryY=1;entryDx=0;entryDy=0;exitX=0.5;exitY=0;exitDx=0;exitDy=0;width=2;endSize=1.9120000000000001;endWidth=5.6;" edge="1" parent="NSotjK8T6bn4dVVNWI57-1" source="A-d34VdUEFRbh1KxrQAH-29" target="A-d34VdUEFRbh1KxrQAH-22">
          <mxGeometry width="50" height="50" relative="1" as="geometry">
            <mxPoint x="830" y="430" as="sourcePoint" />
            <mxPoint x="880" y="380" as="targetPoint" />
          </mxGeometry>
        </mxCell>
        <mxCell id="A-d34VdUEFRbh1KxrQAH-36" value="" style="shape=flexArrow;endArrow=classic;html=1;strokeWidth=2;entryX=0.334;entryY=0.993;entryDx=0;entryDy=0;exitX=0.08;exitY=0.003;exitDx=0;exitDy=0;width=2;endSize=1.9120000000000001;endWidth=5.6;entryPerimeter=0;exitPerimeter=0;" edge="1" parent="NSotjK8T6bn4dVVNWI57-1" source="A-d34VdUEFRbh1KxrQAH-34" target="A-d34VdUEFRbh1KxrQAH-32">
          <mxGeometry width="50" height="50" relative="1" as="geometry">
            <mxPoint x="1010" y="481" as="sourcePoint" />
            <mxPoint x="1065" y="427.0000000000001" as="targetPoint" />
          </mxGeometry>
        </mxCell>
      </root>
    </mxGraphModel>
  </diagram>
</mxfile>
